HIERARCHY
ROOT Hips
{
	OFFSET 0.00000 0.00000 0.00000
	CHANNELS 6 Xposition Yposition Zposition Zrotation Yrotation Xrotation 
	JOINT LHipJoint
	{
		OFFSET 0 0 0
		CHANNELS 3 Zrotation Yrotation Xrotation
		JOINT LeftUpLeg
		{
			OFFSET 1.43652 -1.81092 0.91346
			CHANNELS 3 Zrotation Yrotation Xrotation
			JOINT LeftLeg
			{
				OFFSET 2.45984 -6.75837 0.00000
				CHANNELS 3 Zrotation Yrotation Xrotation
				JOINT LeftFoot
				{
					OFFSET 2.63718 -7.24559 0.00000
					CHANNELS 3 Zrotation Yrotation Xrotation
					JOINT LeftToeBase
					{
						OFFSET 0.19690 -0.54098 2.12239
						CHANNELS 3 Zrotation Yrotation Xrotation
						End Site
						{
							OFFSET 0.00000 -0.00000 1.10116
						}
					}
				}
			}
		}
	}
	JOINT RHipJoint
	{
		OFFSET 0 0 0
		CHANNELS 3 Zrotation Yrotation Xrotation
		JOINT RightUpLeg
		{
			OFFSET -1.35116 -1.81092 0.91345
			CHANNELS 3 Zrotation Yrotation Xrotation
			JOINT RightLeg
			{
				OFFSET -2.55576 -7.02189 0.00000
				CHANNELS 3 Zrotation Yrotation Xrotation
				JOINT RightFoot
				{
					OFFSET -2.61938 -7.19669 0.00000
					CHANNELS 3 Zrotation Yrotation Xrotation
					JOINT RightToeBase
					{
						OFFSET -0.32509 -0.89318 2.23646
						CHANNELS 3 Zrotation Yrotation Xrotation
						End Site
						{
							OFFSET -0.00000 -0.00000 1.19625
						}
					}
				}
			}
		}
	}
	JOINT LowerBack
	{
		OFFSET 0 0 0
		CHANNELS 3 Zrotation Yrotation Xrotation
		JOINT Spine
		{
			OFFSET 0.05193 2.08077 -0.11958
			CHANNELS 3 Zrotation Yrotation Xrotation
			JOINT Spine1
			{
				OFFSET 0.04960 2.08447 0.01967
				CHANNELS 3 Zrotation Yrotation Xrotation
				JOINT Neck
				{
					OFFSET 0 0 0
					CHANNELS 3 Zrotation Yrotation Xrotation
					JOINT Neck1
					{
						OFFSET -0.10699 1.82066 0.27584
						CHANNELS 3 Zrotation Yrotation Xrotation
						JOINT Head
						{
							OFFSET 0.14949 1.84747 -0.32279
							CHANNELS 3 Zrotation Yrotation Xrotation
							End Site
							{
								OFFSET 0.04969 1.88916 -0.14562
							}
						}
					}
				}
				JOINT LeftShoulder
				{
					OFFSET 0 0 0
					CHANNELS 3 Zrotation Yrotation Xrotation
					JOINT LeftArm
					{
						OFFSET 3.73629 1.27211 -0.12847
						CHANNELS 3 Zrotation Yrotation Xrotation
						JOINT LeftForeArm
						{
							OFFSET 5.10995 -0.00000 0.00000
							CHANNELS 3 Zrotation Yrotation Xrotation
							JOINT LeftHand
							{
								OFFSET 3.21207 -0.00000 0.00000
								CHANNELS 3 Zrotation Yrotation Xrotation
								JOINT LeftFingerBase
								{
									OFFSET 0 0 0
									CHANNELS 3 Zrotation Yrotation Xrotation
									JOINT LeftHandIndex1
									{
										OFFSET 0.63349 -0.00000 0.00000
										CHANNELS 3 Zrotation Yrotation Xrotation
										End Site
										{
											OFFSET 0.51074 -0.00000 0.00000
										}
									}
								}
								JOINT LThumb
								{
									OFFSET 0 0 0
									CHANNELS 3 Zrotation Yrotation Xrotation
									End Site
									{
										OFFSET 0.51853 -0.00000 0.51853
									}
								}
							}
						}
					}
				}
				JOINT RightShoulder
				{
					OFFSET 0 0 0
					CHANNELS 3 Zrotation Yrotation Xrotation
					JOINT RightArm
					{
						OFFSET -3.70251 1.29541 -0.35354
						CHANNELS 3 Zrotation Yrotation Xrotation
						JOINT RightForeArm
						{
							OFFSET -5.25109 -0.00000 0.00000
							CHANNELS 3 Zrotation Yrotation Xrotation
							JOINT RightHand
							{
								OFFSET -3.28364 -0.00000 0.00000
								CHANNELS 3 Zrotation Yrotation Xrotation
								JOINT RightFingerBase
								{
									OFFSET 0 0 0
									CHANNELS 3 Zrotation Yrotation Xrotation
									JOINT RightHandIndex1
									{
										OFFSET -0.59974 -0.00000 0.00000
										CHANNELS 3 Zrotation Yrotation Xrotation
										End Site
										{
											OFFSET -0.48353 -0.00000 0.00000
										}
									}
								}
								JOINT RThumb
								{
									OFFSET 0 0 0
									CHANNELS 3 Zrotation Yrotation Xrotation
									End Site
									{
										OFFSET -0.49091 -0.00000 0.49091
									}
								}
							}
						}
					}
				}
			}
		}
	}
}
MOTION
Frames: 15
Frame Time: .0083333
3.0385 22.2933 -13.0956 -9.5579 63.5300 -10.1949 0.0000 0.0000 0.0000 -8.7332 -5.6109 -6.8794 2.2565 9.3810 26.9947 1.8904 4.5291 24.9584 0.7924 5.6820 15.8646 0.0000 0.0000 0.0000 22.0974 7.6004 -9.0670 -2.6531 -10.1112 29.3375 -1.3884 -16.7436 22.5885 -0.3377 -3.7346 10.3311 -0.6485 -3.5338 8.1493 1.4565 -4.6636 -5.8275 2.7218 -2.1149 -10.6462 -22.0054 -13.1274 -1.2950 16.6955 -17.1600 -4.8847 7.6890 -8.3623 2.1398 -0.0000 0.0000 0.0000 97.4186 -49.1277 -120.3374 16.5981 -26.3249 -3.9074 -0.0000 0.0000 -42.5471 12.9784 21.1929 4.7627 -7.1250 0.0000 -0.0000 -15.7430 51.0013 -2.3780 -0.0000 0.0000 0.0000 -60.3827 49.6133 -94.7852 -53.3012 54.2432 -28.8324 0.0000 0.0000 1.1016 -45.1204 4.9227 -4.9252 7.1250 -0.0000 -0.0000 -13.5089 -23.0586 -7.3380
3.0004 22.4748 -12.9851 -10.2728 64.0243 -11.0687 0.0000 0.0000 0.0000 -8.8732 -5.2134 -6.8016 2.3164 9.4961 27.3599 1.7526 4.2350 24.0364 0.8331 5.8228 16.2712 0.0000 0.0000 0.0000 22.7110 7.1690 -9.0209 -2.6772 -10.1532 29.4744 -1.1716 -17.5274 21.4301 -0.4028 -4.0745 11.2862 -0.5715 -3.4839 8.2736 1.4738 -4.5851 -5.7906 2.6922 -2.0809 -10.6877 -22.2000 -13.2170 -1.1311 16.8365 -17.3129 -4.9470 7.7520 -8.4417 2.1550 0.0000 0.0000 0.0000 97.5830 -48.7810 -120.1247 16.2788 -25.8973 -3.7669 -0.0000 0.0000 -41.6175 15.5115 21.9048 5.9114 -7.1250 0.0000 -0.0000 -13.5937 52.1226 -2.4204 0.0000 0.0000 0.0000 -61.7177 48.3664 -95.4239 -49.4567 52.7740 -25.7409 0.0000 0.0000 2.8749 -46.7263 7.1260 -7.5061 7.1250 -0.0000 -0.0000 -14.1575 -19.7900 -8.7980
2.9662 22.6441 -12.8711 -11.0285 64.5492 -11.9133 0.0000 0.0000 0.0000 -8.9630 -4.8025 -6.7933 2.3665 9.5909 27.6620 1.5949 4.0388 22.9140 0.8807 5.9826 16.7341 0.0000 0.0000 0.0000 23.3012 6.8774 -8.9542 -2.6763 -10.1516 29.4689 -0.9626 -18.0632 20.2304 -0.4558 -4.3310 12.0097 -0.5075 -3.4535 8.2359 1.5184 -4.5306 -5.7693 2.6912 -2.0583 -10.6449 -22.4130 -13.3264 -0.9968 16.9170 -17.4857 -5.0065 7.7939 -8.5286 2.1742 0.0000 0.0000 0.0000 97.5594 -48.6350 -119.6960 16.0838 -25.6342 -3.6822 -0.0000 0.0000 -41.0378 18.0143 22.6634 7.1422 -7.1250 0.0000 -0.0000 -11.4335 53.3237 -2.3651 0.0000 0.0000 0.0000 -63.1163 47.1798 -96.0824 -45.4661 50.9948 -22.6004 0.0000 0.0000 4.8010 -48.4091 9.1840 -10.1943 7.1250 -0.0000 -0.0000 -14.8101 -16.5676 -10.3262
2.9352 22.8013 -12.7548 -11.7933 65.1067 -12.6980 0.0000 0.0000 0.0000 -9.0245 -4.4176 -6.8489 2.4069 9.6667 27.9038 1.4216 3.9097 21.6023 0.9291 6.1404 17.1924 0.0000 0.0000 0.0000 23.8502 6.7524 -8.8821 -2.6575 -10.1187 29.3621 -0.7839 -18.2832 19.0835 -0.4850 -4.4657 12.3908 -0.4409 -3.4474 8.0680 1.5575 -4.5082 -5.7766 2.6797 -2.0525 -10.5552 -22.6460 -13.4396 -0.8989 16.9895 -17.6598 -5.0189 7.8313 -8.6150 2.2145 0.0000 -0.0000 0.0000 97.3909 -48.6776 -119.1143 15.9928 -25.5109 -3.6429 -0.0000 0.0000 -40.7919 20.3035 23.3863 8.3545 -7.1250 0.0000 -0.0000 -9.4101 54.4883 -2.2085 0.0000 -0.0000 0.0000 -64.5473 46.0653 -96.8040 -41.4216 48.8899 -19.5036 0.0000 0.0000 6.9308 -50.0948 11.0512 -12.9098 7.1250 -0.0000 -0.0000 -15.4385 -13.4717 -11.8650
2.9061 22.9462 -12.6371 -12.5660 65.6947 -13.4368 0.0000 0.0000 0.0000 -9.0650 -4.0834 -6.9470 2.4385 9.7253 28.0916 1.2405 3.7945 20.1417 0.9716 6.2753 17.5854 0.0000 0.0000 0.0000 24.3523 6.7612 -8.8185 -2.6281 -10.0673 29.1948 -0.6425 -18.1964 18.0246 -0.4874 -4.4768 12.4220 -0.3564 -3.4567 7.8049 1.5652 -4.5071 -5.8114 2.6225 -2.0599 -10.4424 -22.8506 -13.5585 -0.8279 17.0469 -17.8417 -4.9695 7.8544 -8.7057 2.2750 0.0000 -0.0000 0.0000 97.1579 -48.8811 -118.4810 15.9861 -25.5019 -3.6400 -0.0000 0.0000 -40.8447 22.2761 23.9787 9.4517 -7.1250 0.0000 -0.0000 -7.6020 55.4902 -1.9656 0.0000 -0.0000 0.0000 -65.9981 44.9807 -97.6242 -37.3831 46.4408 -16.5171 0.0000 0.0000 9.3149 -51.6270 12.5471 -15.3420 7.1250 -0.0000 -0.0000 -16.0074 -10.8275 -13.2571
2.8784 23.0795 -12.5184 -13.3341 66.3172 -14.1367 0.0000 0.0000 0.0000 -9.0995 -3.8168 -7.0639 2.4626 9.7696 28.2337 1.0602 3.6362 18.5869 0.9949 6.3479 17.7972 0.0000 0.0000 0.0000 24.7981 6.8764 -8.7601 -2.5947 -10.0080 29.0028 -0.5288 -17.9002 17.0252 -0.4693 -4.3937 12.1869 -0.2541 -3.4825 7.4741 1.5312 -4.5302 -5.8623 2.5104 -2.0822 -10.3110 -23.0284 -13.6684 -0.8173 17.1343 -18.0076 -4.8269 7.8771 -8.7885 2.3713 0.0000 0.0000 0.0000 96.8749 -49.2005 -117.8255 16.0452 -25.5818 -3.6654 -0.0000 0.0000 -41.1570 23.8641 24.3666 10.3437 -7.1250 0.0000 -0.0000 -6.0723 56.2242 -1.6759 0.0000 0.0000 0.0000 -67.4751 43.9080 -98.5805 -33.4247 43.6539 -13.7144 0.0000 0.0000 11.8666 -52.7978 13.6790 -17.3032 7.1250 -0.0000 -0.0000 -16.4160 -8.7492 -14.3458
2.8516 23.2016 -12.4003 -14.1155 66.9779 -14.8367 0.0000 0.0000 0.0000 -9.1358 -3.6447 -7.1724 2.4813 9.8039 28.3440 0.8899 3.4329 17.0015 0.9929 6.3417 17.7792 0.0000 0.0000 0.0000 25.1820 7.0371 -8.7124 -2.5613 -9.9485 28.8101 -0.4348 -17.4699 16.0667 -0.4390 -4.2517 11.7858 -0.0944 -3.5090 7.1274 1.4210 -4.5544 -5.9421 2.2859 -2.1114 -10.2136 -23.1502 -13.7427 -0.7662 17.2767 -18.1438 -4.6172 7.9136 -8.8615 2.4779 -0.0000 -0.0000 0.0000 96.6592 -49.6353 -117.2415 16.1555 -25.7310 -3.7132 -0.0000 0.0000 -41.6791 25.0314 24.5000 10.9598 -7.1250 0.0000 -0.0000 -4.8674 56.6145 -1.3881 -0.0000 -0.0000 0.0000 -68.8666 42.8553 -99.5840 -29.6189 40.5645 -11.1610 0.0000 0.0000 14.4833 -53.3681 14.4344 -18.5339 7.1250 -0.0000 -0.0000 -16.5528 -7.4148 -14.9318
2.8249 23.3131 -12.2835 -14.9687 67.6674 -15.6051 0.0000 0.0000 0.0000 -9.1540 -3.5628 -7.2664 2.4974 9.8331 28.4380 0.7379 3.1590 15.4663 0.9559 6.2259 17.4413 0.0000 0.0000 0.0000 25.5270 7.1816 -8.6810 -2.5302 -9.8925 28.6295 -0.3581 -16.9531 15.1595 -0.4007 -4.0640 11.2567 0.1292 -3.5461 6.7882 1.2741 -4.5894 -6.0323 1.9902 -2.1512 -10.1405 -23.1946 -13.8109 -0.7433 17.3912 -18.2669 -4.3960 7.9304 -8.9276 2.5802 -0.0000 -0.0000 0.0000 96.4090 -50.1316 -116.6622 16.2982 -25.9234 -3.7754 -0.0000 0.0000 -42.3196 25.7639 24.3776 11.2664 -7.1250 0.0000 -0.0000 -4.0284 56.6445 -1.1512 -0.0000 -0.0000 0.0000 -70.2663 41.8250 -100.7127 -26.0423 37.2505 -8.9133 0.0000 0.0000 17.0919 -53.1574 14.7698 -18.7910 7.1250 -0.0000 -0.0000 -16.3412 -7.0140 -14.8566
2.7978 23.4143 -12.1688 -15.9143 68.3823 -16.4788 0.0000 0.0000 0.0000 -9.1515 -3.5485 -7.3424 2.5132 9.8619 28.5307 0.6087 2.8551 14.0412 0.8969 6.0360 16.8888 0.0000 0.0000 0.0000 25.8379 7.2700 -8.6576 -2.5021 -9.8418 28.4659 -0.2953 -16.3962 14.3112 -0.3665 -3.8886 10.7636 0.4217 -3.5793 6.4878 1.0848 -4.6156 -6.1364 1.6142 -2.1924 -10.1166 -23.1250 -13.8733 -0.6697 17.4468 -18.3890 -4.2246 7.9196 -8.9956 2.6432 -0.0000 0.0000 0.0000 96.1806 -50.6869 -116.1310 16.4609 -26.1416 -3.8468 -0.0000 0.0000 -42.9868 26.0697 24.0412 11.2721 -7.1250 0.0000 -0.0000 -3.5790 56.3538 -0.9973 -0.0000 0.0000 0.0000 -71.6220 40.8245 -101.9227 -22.7149 33.7756 -6.9792 0.0000 0.0000 19.6277 -52.1047 14.8694 -18.2471 7.1250 -0.0000 -0.0000 -15.6977 -7.3014 -14.1304
2.7695 23.5058 -12.0560 -16.9857 69.1050 -17.4917 0.0000 0.0000 0.0000 -9.1133 -3.5779 -7.4076 2.5309 9.8939 28.6339 0.5039 2.5605 12.7739 0.8229 5.7878 16.1699 0.0000 0.0000 0.0000 26.1310 7.3037 -8.6340 -2.4773 -9.7966 28.3205 -0.2418 -15.8516 13.5189 -0.3389 -3.7410 10.3490 0.7732 -3.5999 6.2319 0.8691 -4.6214 -6.2535 1.1788 -2.2285 -10.1422 -23.0024 -13.9239 -0.5091 17.4850 -18.5070 -4.1334 7.9063 -9.0645 2.6613 0.0000 0.0000 0.0000 95.9616 -51.2943 -115.6138 16.6364 -26.3760 -3.9244 -0.0000 0.0000 -43.6011 25.9964 23.5510 11.0259 -7.1250 0.0000 -0.0000 -3.4941 55.8162 -0.9281 0.0000 0.0000 0.0000 -72.8588 39.9134 -103.1747 -19.7424 30.3307 -5.4007 0.0000 0.0000 22.1626 -50.2700 14.7052 -16.9844 7.1250 -0.0000 -0.0000 -14.6480 -8.2332 -12.8375
2.7396 23.5872 -11.9444 -18.1704 69.8308 -18.6532 0.0000 0.0000 0.0000 -9.0430 -3.6089 -7.4501 2.5510 9.9300 28.7504 0.4230 2.2784 11.7096 0.7461 5.5176 15.3910 0.0000 0.0000 0.0000 26.4035 7.2538 -8.5945 -2.4563 -9.7580 28.1965 -0.1987 -15.3221 12.8015 -0.3185 -3.6280 10.0323 1.1452 -3.6091 6.0357 0.6447 -4.6109 -6.3685 0.7252 -2.2586 -10.2046 -22.9157 -13.9730 -0.2629 17.5442 -18.6335 -4.1347 7.9128 -9.1395 2.6457 -0.0000 -0.0000 0.0000 95.7124 -51.9378 -115.0526 16.8190 -26.6185 -4.0059 -0.0000 0.0000 -44.0844 25.6388 22.9611 10.6049 -7.1250 0.0000 -0.0000 -3.6856 55.1130 -0.9161 -0.0000 -0.0000 0.0000 -73.9659 39.1334 -104.5483 -17.2112 27.1353 -4.1832 0.0000 0.0000 24.8828 -47.6497 14.0207 -14.8843 7.1250 -0.0000 -0.0000 -13.2152 -10.0576 -11.0090
2.7076 23.6582 -11.8332 -19.4325 70.5528 -19.9374 0.0000 0.0000 0.0000 -8.9517 -3.6170 -7.4619 2.5726 9.9688 28.8757 0.3632 2.0238 10.8618 0.6748 5.2527 14.6308 0.0000 0.0000 0.0000 26.6515 7.1693 -8.5090 -2.4399 -9.7278 28.0996 -0.1598 -14.8585 12.1396 -0.3054 -3.5530 9.8224 1.4885 -3.6061 5.8976 0.4176 -4.5879 -6.4757 0.2864 -2.2812 -10.2914 -22.8671 -14.0143 0.0758 17.6431 -18.7619 -4.2273 7.9467 -9.2181 2.5969 0.0000 0.0000 0.0000 95.4078 -52.6137 -114.3746 17.0138 -26.8759 -4.0936 -0.0000 0.0000 -44.4113 25.1234 22.3267 10.1008 -7.1250 0.0000 -0.0000 -4.0301 54.3333 -0.9255 0.0000 0.0000 0.0000 -74.9824 38.4639 -106.1524 -15.0398 24.2015 -3.2422 0.0000 0.0000 27.9303 -44.5396 12.8644 -12.3579 7.1250 -0.0000 -0.0000 -11.5106 -12.4767 -8.9385
2.6735 23.7189 -11.7213 -20.7175 71.2693 -21.2973 0.0000 0.0000 0.0000 -8.8552 -3.5803 -7.4318 2.5938 10.0066 28.9980 0.3220 1.7918 10.2450 0.6180 5.0309 13.9968 0.0000 0.0000 0.0000 26.8624 7.0719 -8.3667 -2.4299 -9.7094 28.0407 -0.1248 -14.4642 11.5348 -0.2968 -3.5029 9.6821 1.7646 -3.5851 5.8096 0.1754 -4.5493 -6.5698 -0.1311 -2.2927 -10.3888 -22.8295 -14.0549 0.5206 17.7775 -18.9047 -4.4104 8.0026 -9.3078 2.5129 -0.0000 -0.0000 0.0000 95.0883 -53.3168 -113.5748 17.2258 -27.1544 -4.1899 -0.0000 0.0000 -44.5580 24.5774 21.6902 9.5942 -7.1250 0.0000 -0.0000 -4.4036 53.5499 -0.9273 -0.0000 -0.0000 0.0000 -75.8411 37.9250 -108.0617 -13.2524 21.6560 -2.5457 0.0000 0.0000 31.5099 -40.9802 11.0835 -9.4806 7.1250 -0.0000 -0.0000 -9.5217 -15.5667 -6.7118
2.6372 23.7692 -11.6085 -21.9743 71.9852 -22.6797 0.0000 0.0000 0.0000 -8.7735 -3.5058 -7.3524 2.6127 10.0399 29.1061 0.2960 1.5689 9.8488 0.5736 4.8502 13.4819 0.0000 0.0000 0.0000 27.0204 6.9933 -8.1655 -2.4277 -9.7052 28.0273 -0.0910 -14.1657 10.9815 -0.2932 -3.4819 9.6234 1.9390 -3.5600 5.7591 -0.0691 -4.5168 -6.6367 -0.4931 -2.3004 -10.4699 -22.7805 -14.1016 0.9708 17.9261 -19.0533 -4.6211 8.0625 -9.4006 2.4219 0.0000 0.0000 0.0000 94.6830 -54.0151 -112.5841 17.4555 -27.4544 -4.2952 -0.0000 0.0000 -44.4954 24.1231 21.0733 9.1469 -7.1250 0.0000 -0.0000 -4.6863 52.8095 -0.9021 0.0000 0.0000 0.0000 -76.5944 37.4967 -110.3701 -11.8202 19.5344 -2.0418 0.0000 0.0000 35.5257 -37.0757 8.7738 -6.5749 7.1250 -0.0000 -0.0000 -7.2129 -19.0780 -4.4947
2.5991 23.8096 -11.4950 -23.1773 72.7114 -24.0485 0.0000 0.0000 0.0000 -8.7218 -3.4107 -7.2238 2.6272 10.0656 29.1895 0.2819 1.3597 9.6445 0.5393 4.7053 13.0699 0.0000 0.0000 0.0000 27.1158 6.9447 -7.9199 -2.4341 -9.7170 28.0651 -0.0604 -13.9491 10.4983 -0.2906 -3.4668 9.5811 2.0133 -3.5256 5.7415 -0.3401 -4.4847 -6.6870 -0.8270 -2.3024 -10.5455 -22.6464 -14.1587 1.4574 18.0641 -19.2184 -4.8580 8.1102 -9.5045 2.3118 -0.0000 -0.0000 0.0000 94.2868 -54.7102 -111.4996 17.6941 -27.7637 -4.4058 -0.0000 0.0000 -44.1832 23.8121 20.5042 8.7872 -7.1250 0.0000 -0.0000 -4.8374 52.1493 -0.8531 -0.0000 -0.0000 0.0000 -77.1650 37.1783 -112.9378 -10.7179 17.8546 -1.6884 0.0000 0.0000 39.6976 -32.8175 6.1090 -3.9260 7.1250 -0.0000 -0.0000 -4.4706 -22.7285 -2.4033
